<?xml version="1.0" encoding="UTF-8" standalone="no"?>
<svg
   xmlns:dc="http://purl.org/dc/elements/1.1/"
   xmlns:cc="http://creativecommons.org/ns#"
   xmlns:rdf="http://www.w3.org/1999/02/22-rdf-syntax-ns#"
   xmlns:svg="http://www.w3.org/2000/svg"
   xmlns="http://www.w3.org/2000/svg"
   xmlns:sodipodi="http://sodipodi.sourceforge.net/DTD/sodipodi-0.dtd"
   xmlns:inkscape="http://www.inkscape.org/namespaces/inkscape"
   inkscape:export-ydpi="48"
   inkscape:export-xdpi="48"
   inkscape:export-filename="D:\Workspace\md5-checksum\logo-32.png"
   viewBox="0 0 128 128"
   width="64px"
   height="64px"
   version="1.1"
   id="svg10"
   sodipodi:docname="logo.svg"
   inkscape:version="1.0 (4035a4fb49, 2020-05-01)">
  <metadata
     id="metadata16">
    <rdf:RDF>
      <cc:Work
         rdf:about="">
        <dc:format>image/svg+xml</dc:format>
        <dc:type
           rdf:resource="http://purl.org/dc/dcmitype/StillImage" />
      </cc:Work>
    </rdf:RDF>
  </metadata>
  <defs
     id="defs14" />
  <sodipodi:namedview
     inkscape:document-rotation="0"
     pagecolor="#ffffff"
     bordercolor="#666666"
     borderopacity="1"
     objecttolerance="10"
     gridtolerance="10"
     guidetolerance="10"
     inkscape:pageopacity="0"
     inkscape:pageshadow="2"
     inkscape:window-width="1858"
     inkscape:window-height="1057"
     id="namedview12"
     showgrid="true"
     inkscape:zoom="16"
     inkscape:cx="22.040891"
     inkscape:cy="46.112204"
     inkscape:window-x="54"
     inkscape:window-y="-8"
     inkscape:window-maximized="1"
     inkscape:current-layer="svg10">
    <inkscape:grid
       type="xygrid"
       id="grid852" />
  </sodipodi:namedview>
  <path
     fill="#FFF"
     d="M94.5,112h-61c-5.5,0-10-4.5-10-10V22c0-5.5,4.5-10,10-10h61c5.5,0,10,4.5,10,10v80C104.5,107.5,100,112,94.5,112z"
     id="path2" />
  <path
     sodipodi:nodetypes="sssssssssssssssssssss"
     fill="#c7d7e2"
     d="m 90.5,37 h -53 c -1.7,0 -3,-1.3 -3,-3 0,-1.7 1.3,-3 3,-3 h 53 c 1.7,0 3,1.3 3,3 0,1.7 -1.3,3 -3,3 z m 0,15 h -53 c -1.7,0 -3,-1.3 -3,-3 0,-1.7 1.3,-3 3,-3 h 53 c 1.7,0 3,1.3 3,3 0,1.7 -1.3,3 -3,3 z M 61,67 H 37.5 c -1.7,0 -3,-1.3 -3,-3 0,-1.7 1.3,-3 3,-3 H 61 c 1.7,0 3,1.3 3,3 0,1.7 -1.3,3 -3,3 z"
     id="path4" />
  <path
     fill="#454b54"
     d="m 94.999918,115 h -1.067837 c -1.7,0 -3,-1.3 -3,-3 0,-1.7 1.3,-3 3,-3 h 1.067837 c 3.9,0 7.000002,-3.1 7.000002,-7 V 22 c 0,-3.9 -3.100002,-7 -7.000002,-7 H 33 c -3.9,0 -7,3.1 -7,7 v 80 c 0,3.9 3.1,7 7,7 h 30.756935 c 1.7,0 3,1.3 3,3 0,1.7 -1.3,3 -3,3 H 33 c -7.2,0 -13,-5.8 -13,-13 V 22 C 20,14.8 25.8,9 33,9 h 61.999918 c 7.200002,0 13.000002,5.8 13.000002,13 v 80 c 0,7.2 -5.8,13 -13.000002,13 z"
     id="path6"
     sodipodi:nodetypes="sssssssssssssssssssssss" />
  <path
     fill="#f1c0c3"
     d="M 96.04,92.547581 C 96.04,82.95572 88.41907,75.072 79.09,75.072 c -9.32907,0 -16.95,7.88372 -16.95,17.475581 0,6.17558 3.153488,11.694179 7.88372,14.847679 v 13.6651 l 8.934885,-3.81046 8.934884,3.81046 v -13.6651 C 92.886512,104.24176 96.04,98.723161 96.04,92.547581 Z m -16.95,9.591849 c -4.993024,0 -9.06628,-4.336037 -9.06628,-9.591849 0,-5.255814 4.073256,-9.591861 9.06628,-9.591861 4.993024,0 9.06628,4.336047 9.06628,9.591861 0,5.255812 -4.073256,9.591849 -9.06628,9.591849 z"
     id="path8"
     style="fill:#4adbc3;fill-opacity:1;stroke-width:1.31395" />
</svg>
