<?xml version="1.0" standalone="no"?>
<!DOCTYPE svg PUBLIC "-//W3C//DTD SVG 20010904//EN"
 "http://www.w3.org/TR/2001/REC-SVG-20010904/DTD/svg10.dtd">
<svg version="1.0" xmlns="http://www.w3.org/2000/svg"
 width="700.000000pt" height="700.000000pt" viewBox="0 0 700.000000 700.000000"
 preserveAspectRatio="xMidYMid meet">
<metadata>
Created by potrace 1.14, written by Peter Selinger 2001-2017
</metadata>
<g transform="translate(0.000000,700.000000) scale(0.100000,-0.100000)"
fill="#000000" stroke="none">
<path d="M1655 6495 c-141 -32 -255 -94 -355 -194 -109 -110 -176 -241 -199
-391 -9 -56 -11 -657 -9 -2350 l3 -2275 31 -88 c71 -198 203 -344 386 -426
137 -62 118 -61 1114 -61 898 0 907 0 943 21 53 30 74 65 79 130 5 71 -16 120
-67 151 l-36 23 -910 5 c-906 5 -910 5 -963 27 -69 28 -131 76 -176 137 -71
96 -66 -95 -64 2426 l3 2275 30 58 c38 76 126 158 202 189 l58 23 1775 0 1775
0 58 -23 c76 -31 164 -113 202 -189 l30 -58 3 -2275 c2 -2521 7 -2330 -64
-2426 -79 -106 -173 -153 -327 -161 -107 -6 -140 -20 -181 -76 -30 -40 -30
-144 0 -184 45 -60 78 -73 186 -73 327 0 586 184 695 495 l28 80 3 2275 c2
1693 0 2294 -9 2350 -23 153 -90 283 -204 395 -84 82 -169 135 -280 173 l-80
27 -1810 2 c-1487 1 -1821 -1 -1870 -12z"/>
<path d="M2013 5300 c-45 -10 -80 -35 -104 -73 -27 -44 -23 -139 9 -184 48
-68 -69 -63 1582 -63 1356 0 1495 1 1526 16 52 25 78 68 82 139 3 50 0 66 -20
94 -13 19 -39 44 -58 55 -35 21 -41 21 -1510 23 -811 0 -1490 -2 -1507 -7z"/>
<path d="M2018 4481 c-80 -16 -128 -74 -128 -154 0 -63 24 -112 69 -143 l36
-24 1498 0 c1659 0 1541 -5 1590 64 17 24 22 45 22 96 0 74 -23 117 -78 148
-30 16 -127 17 -1502 18 -808 1 -1486 -1 -1507 -5z"/>
<path d="M1960 3638 c-93 -64 -93 -212 0 -276 l34 -22 705 2 c688 3 707 4 733
23 35 25 68 91 68 135 0 44 -33 110 -68 135 -26 19 -45 20 -733 23 l-705 2
-34 -22z"/>
<path d="M4214 2890 c-409 -57 -738 -381 -804 -792 -18 -108 -8 -310 19 -413
50 -185 182 -390 326 -502 l74 -58 0 -372 c1 -205 3 -373 5 -373 3 0 109 45
237 100 129 55 239 100 247 100 7 0 118 -45 247 -100 130 -55 237 -100 240
-100 3 0 5 168 5 373 l0 372 61 45 c165 120 296 318 355 535 27 100 27 369 0
470 -77 287 -270 520 -531 641 -137 63 -338 94 -481 74z m225 -445 c135 -36
248 -126 314 -252 63 -120 80 -237 52 -366 -29 -136 -106 -252 -216 -326 -289
-193 -670 -25 -745 327 -26 127 -10 245 52 363 107 203 334 310 543 254z"/>
</g>
</svg>
